<svg xmlns="http://www.w3.org/2000/svg" width="60" height="60"><rect ry="50%" rx="50%" width="60" height="60" fill="#E4405F"/><path fill="#fff" d="M29.68 12.6c-4.564 0-5.134.021-6.926.1-1.789.085-3.007.366-4.078.782-1.105.428-2.043 1.004-2.976 1.938s-1.511 1.87-1.938 2.976c-.416 1.071-.699 2.289-.781 4.078-.084 1.792-.101 2.362-.101 6.926s.021 5.134.1 6.926c.085 1.788.366 3.007.782 4.078A8.239 8.239 0 0 0 15.7 43.38a8.215 8.215 0 0 0 2.976 1.938c1.072.414 2.29.699 4.078.781 1.792.084 2.362.101 6.926.101s5.134-.021 6.926-.1c1.788-.085 3.007-.368 4.078-.782a8.257 8.257 0 0 0 2.976-1.938 8.204 8.204 0 0 0 1.938-2.976c.414-1.071.699-2.29.781-4.078.084-1.792.101-2.362.101-6.926s-.021-5.134-.1-6.926c-.085-1.788-.368-3.008-.782-4.078a8.245 8.245 0 0 0-1.938-2.976 8.185 8.185 0 0 0-2.976-1.938c-1.071-.416-2.29-.699-4.078-.781-1.792-.084-2.362-.101-6.926-.101zm0 3.024c4.484 0 5.019.022 6.79.1 1.638.076 2.527.348 3.118.58a5.218 5.218 0 0 1 1.935 1.255 5.19 5.19 0 0 1 1.254 1.933c.23.591.504 1.48.578 3.118.08 1.772.098 2.304.098 6.79s-.02 5.019-.103 6.79c-.086 1.638-.359 2.527-.59 3.118-.313.787-.67 1.344-1.258 1.935a5.241 5.241 0 0 1-1.932 1.254c-.588.23-1.491.504-3.13.578-1.783.08-2.308.098-6.802.098-4.495 0-5.02-.02-6.803-.103-1.639-.086-2.542-.359-3.13-.59-.797-.313-1.344-.67-1.93-1.258-.59-.587-.967-1.154-1.26-1.932-.232-.588-.503-1.491-.589-3.13-.063-1.763-.085-2.308-.085-6.781 0-4.474.022-5.02.085-6.805.086-1.638.357-2.54.588-3.128.294-.798.671-1.344 1.26-1.933.587-.587 1.134-.965 1.931-1.258.588-.232 1.471-.505 3.11-.589 1.784-.063 2.31-.084 6.802-.084l.063.042zm0 5.15a8.626 8.626 0 0 0-8.627 8.626 8.626 8.626 0 0 0 8.627 8.627 8.626 8.626 0 0 0 8.627-8.627 8.626 8.626 0 0 0-8.627-8.627zm0 14.226c-3.094 0-5.6-2.506-5.6-5.6s2.506-5.6 5.6-5.6 5.6 2.506 5.6 5.6-2.506 5.6-5.6 5.6zm10.984-14.567a2.017 2.017 0 0 1-2.016 2.016 2.017 2.017 0 0 1-2.016-2.016 2.017 2.017 0 0 1 4.032 0z"/></svg>
