<svg xmlns="http://www.w3.org/2000/svg" width="60" height="60"><rect ry="50%" rx="50%" width="60" height="60" fill="#1DA1F2"/><path fill="#fff" d="M49.325 18.312a16 16 0 0 1-4.52 1.24 7.933 7.933 0 0 0 3.46-4.357 16.26 16.26 0 0 1-5.003 1.895 7.872 7.872 0 0 0-13.414 7.17c-6.544-.308-12.34-3.452-16.224-8.2a7.715 7.715 0 0 0-1.066 3.96 7.873 7.873 0 0 0 3.501 6.553 7.846 7.846 0 0 1-3.565-.986v.096a7.877 7.877 0 0 0 6.314 7.723 7.994 7.994 0 0 1-3.54.136 7.898 7.898 0 0 0 7.367 5.468 15.787 15.787 0 0 1-9.763 3.368A16.71 16.71 0 0 1 11 42.27a22.392 22.392 0 0 0 12.091 3.535c14.485 0 22.397-11.994 22.397-22.376 0-.336 0-.672-.024-1.008a15.896 15.896 0 0 0 3.936-4.077z"/></svg>
